<?xml version="1.0" standalone="no"?>
<!DOCTYPE svg PUBLIC "-//W3C//DTD SVG 1.1//EN" "http://www.w3.org/Graphics/SVG/1.1/DTD/svg11.dtd" >
<!--
2013-9-30: Created.
-->
<svg>
<metadata>
Created by iconfont
</metadata>
<defs>

<font id="iconfont" horiz-adv-x="1024" >
  <font-face
    font-family="iconfont"
    font-weight="500"
    font-stretch="normal"
    units-per-em="1024"
    ascent="896"
    descent="-128"
  />
    <missing-glyph />
    
    <glyph glyph-name="x" unicode="x" horiz-adv-x="1001"
d="M281 543q-27 -1 -53 -1h-83q-18 0 -36.5 -6t-32.5 -18.5t-23 -32t-9 -45.5v-76h912v41q0 16 -0.5 30t-0.5 18q0 13 -5 29t-17 29.5t-31.5 22.5t-49.5 9h-133v-97h-438v97zM955 310v-52q0 -23 0.5 -52t0.5 -58t-10.5 -47.5t-26 -30t-33 -16t-31.5 -4.5q-14 -1 -29.5 -0.5
t-29.5 0.5h-32l-45 128h-439l-44 -128h-29h-34q-20 0 -45 1q-25 0 -41 9.5t-25.5 23t-13.5 29.5t-4 30v167h911zM163 247q-12 0 -21 -8.5t-9 -21.5t9 -21.5t21 -8.5q13 0 22 8.5t9 21.5t-9 21.5t-22 8.5zM316 123q-8 -26 -14 -48q-5 -19 -10.5 -37t-7.5 -25t-3 -15t1 -14.5
t9.5 -10.5t21.5 -4h37h67h81h80h64h36q23 0 34 12t2 38q-5 13 -9.5 30.5t-9.5 34.5q-5 19 -11 39h-368zM336 498v228q0 11 2.5 23t10 21.5t20.5 15.5t34 6h188q31 0 51.5 -14.5t20.5 -52.5v-227h-327z" />
    

    
    <glyph glyph-name="zuoshang" unicode="&#983458;" d="M240.64 21.504q-17.408-17.408-36.864-20.48t-36.352 6.656-28.16 30.72-11.264 51.712l0 461.824q0 27.648 9.728 52.736t26.112 43.52 38.912 29.184 48.128 10.752q59.392 0 122.88-0.512t126.976-0.512 124.416-0.512 116.224-0.512q26.624 0 45.056-11.264t27.136-27.648 5.632-36.352-20.48-36.352q-19.456-19.456-50.688-50.176t-70.144-69.12-82.432-81.92-87.552-87.04-86.528-85.504-77.824-77.312-62.464-61.952-40.448-39.936z"  horiz-adv-x="1024" />

    
    <glyph glyph-name="youshang" unicode="&#983460;" d="M707.584 20.48l-58.368 58.368q-40.96 40.96-94.208 93.696t-113.664 112.128-116.224 114.688-102.4 101.376-72.192 71.68q-17.408 16.384-20.992 36.352t5.12 36.352 27.136 27.648 45.056 11.264l475.136 0q62.464 0 99.328-36.352t36.864-93.696l0-465.92q0-30.72-10.752-51.712t-27.136-30.208-35.84-6.144-36.864 20.48z"  horiz-adv-x="1024" />

    
    <glyph glyph-name="zuoxia" unicode="&#983461;" d="M241.664 792.576l39.936-39.936q26.624-26.624 62.464-61.952t77.824-77.312 86.016-85.504 87.552-87.04 82.432-81.408 70.144-68.608 50.688-50.176q17.408-17.408 20.992-36.864t-5.12-36.352-27.136-28.16-45.056-11.264q-122.88 0-241.664-1.024t-239.616-1.024q-30.72 0-55.296 10.752t-41.472 29.184-26.112 43.52-9.216 52.736l0 461.824q0 30.72 10.752 52.224t27.648 30.72 36.864 6.144 37.376-20.48z"  horiz-adv-x="1024" />

    
    <glyph glyph-name="iconfont63" unicode="&#59248;" d="M127.552 672c0 88 60.608 121.12 134.672 73.616l578.688-371.216c74.064-47.52 74.064-125.264 0-172.784l-578.688-371.232c-74.064-47.504-134.672-14.384-134.672 73.616v768z"  horiz-adv-x="1024" />

    
    <glyph glyph-name="yongshuiliang" unicode="&#59641;" d="M723.347011 591.078289 512.446673 833.001177l-212.878388-239.969397c-18.34788-17.437138-148.494009-146.31232-148.494009-293.081035 0-199.10571 161.971975-361.065406 361.065406-361.065406 199.092407 0 361.064382 161.959695 361.064382 361.065406C873.204064 423.023782 738.054991 574.95303 723.347011 591.078289zM512.140705 34.733315c-113.487727 0-210.258725 71.752184-248.047376 172.175361 40.771589-26.530236 110.944811-50.304709 175.744653-11.874445 20.36584-11.927657 48.54053-23.347754 80.766488-22.464641 18.185174 0.427742 42.453904 4.92108 67.793012 20.860097 20.11206-12.355399 47.496757-23.936155 79.604012-23.908526 0.052189 0 0.106424 0 0.158612 0 23.641443 0.026606 57.164954 6.712889 91.263563 35.3276C721.086527 105.496985 624.83537 34.733315 512.140705 34.733315zM775.028067 290.268222c-19.495006 17.890462-49.822732 16.58063-67.699891-2.942005-19.963681-21.742187-34.219359-21.902846-38.912242-21.957081-0.13303 0-0.267083 0-0.413416 0-19.764136 0-39.59274 16.127306-45.290509 22.063505l-35.43607 38.431288-35.235502-38.617529c-16.659425-18.291598-29.188786-18.720364-33.308617-18.853393-19.562545-0.615007-39.819914 14.762215-45.730531 20.431332l-33.885761 33.883715-33.883715-33.883715c-6.751774-6.739495-43.068911-38.296211-95.794763 3.450589-18.547425 14.948457-44.822858 13.665231-62.032822-1.846044-0.105401 3.182482-0.478907 6.311753-0.478907 9.521864 0 112.242364 118.379131 223.334531 119.527281 224.403886l145.380088 163.511028 139.948379-160.541393c32.587186-35.756365 125.57502-154.310481 125.57502-227.373521 0-3.932566-0.413416-7.756661-0.588401-11.633968C776.15268 288.931784 775.68503 289.654238 775.028067 290.268222z"  horiz-adv-x="1024" />

    
    <glyph glyph-name="zidong" unicode="&#58898;" d="M512.024559 833.082018c-248.018723 0-449.079972-201.061248-449.079972-449.079972 0-248.021793 201.061248-449.083042 449.079972-449.083042 248.021793 0 449.079972 201.061248 449.079972 449.083042C961.104531 632.02077 760.046353 833.082018 512.024559 833.082018zM512.024559 114.552222c-148.811234 0-269.446755 120.638591-269.446755 269.449825 0 84.85562 39.46892 160.232354 100.813057 209.57004l-40.936341 0c-16.534582 0-29.939893 13.405311-29.939893 29.936823 0 16.534582 13.405311 29.939893 29.939893 29.939893l119.753431 0c16.535605 0 29.939893-13.405311 29.939893-29.939893l0-119.753431c0-16.535605-13.405311-29.939893-29.939893-29.939893-16.534582 0-29.936823 13.405311-29.936823 29.939893l0 51.575656c-54.109362-37.892005-89.816608-100.259448-89.816608-171.328064 0-115.745141 93.827969-209.573109 209.57004-209.573109 16.534582 0 29.939893-13.401218 29.939893-29.936823C541.964452 127.956509 528.560164 114.552222 512.024559 114.552222zM721.594599 174.428937c16.534582 0 29.939893-13.401218 29.939893-29.936823 0-16.534582-13.405311-29.939893-29.939893-29.939893L601.841168 114.552222c-16.534582 0-29.939893 13.405311-29.939893 29.939893L571.901275 264.245546c0 16.535605 13.405311 29.939893 29.939893 29.939893s29.939893-13.405311 29.939893-29.939893l0-51.574632c54.105269 37.892005 89.813538 100.259448 89.813538 171.332157 0 115.742071-93.827969 209.57004-209.57004 209.57004-16.534582 0-29.936823 13.405311-29.936823 29.936823 0 16.534582 13.401218 29.939893 29.936823 29.939893 148.811234 0 269.449825-120.634498 269.449825-269.446755 0-84.859713-39.473013-160.236448-100.816127-209.573109L721.594599 174.42996z"  horiz-adv-x="1024" />

    
    <glyph glyph-name="ai-video" unicode="&#58987;" d="M647.725 55.103c0 0 93.091 0 93.091 93.091v465.453c0 93.091-93.091 93.091-93.091 93.091h-554.634c0 0-93.091 0-93.091-93.091v-465.453c0-93.091 93.091-93.091 93.091-93.091h554.634zM795.041 524.885v-289.605l228.956-180.177-0 651.634-228.956-181.852z"  horiz-adv-x="1024" />

    
    <glyph glyph-name="xia" unicode="&#58920;" d="M103.968 746.225h821.243c45.467 0 82.191-35.892 82.191-80.688 0-20.786-8.127-39.625-21.134-53.893l-406.118-533.779c-27.222-35.363-78.468-42.801-114.638-15.957-6.334 4.581-11.867 9.956-16.209 15.957l-410.757 539.453c-26.902 35.363-19.655 86.091 16.48 112.607 14.832 11.093 31.857 16.218 48.953 16.218v0 0 0zM103.968 746.225z"  horiz-adv-x="1024" />

    
    <glyph glyph-name="youxia" unicode="&#59185;" d="M772.096 652.288q17.408 17.408 39.424 22.528t40.96-2.048 31.744-26.624 12.8-50.176l0-461.824q0-27.648-9.216-52.224t-25.6-43.008-38.912-28.672-49.152-10.24l-490.496 0q-26.624 0-43.52 13.312t-23.04 32.768-1.024 41.472 22.528 39.424q25.6 25.6 70.144 69.12t98.304 96.256 110.592 109.056 107.52 105.984 90.112 88.576 56.832 56.32z"  horiz-adv-x="1024" />

    
    <glyph glyph-name="jcsl" unicode="&#58903;" d="M511.998465 778.219503 64.950779 424.853453l55.878658 0 2.187829 1.674129 0-1.674129 67.663052 0 0-435.07398 642.629129 0L833.309448 424.853453l125.738749 0L511.998465 778.219503zM791.404036 465.638345l0-435.06784L232.595964 30.570505 232.595964 465.638345l-58.403155 0 337.805656 258.195503 337.807702-258.195503L791.404036 465.638345zM609.051895 225.686345c-56.675814-33.295314-86.949304-40.126906-166.368098 0-52.977585-32.733519-110.544699-41.911552-166.377308 0l0.010233-53.945633c0 0 92.459808-37.676088 166.367075 12.649088 73.194022-49.622164 155.110707-18.175965 166.368098 0 24.629957-26.559912 95.795786-36.023448 138.640594-13.762445l-0.00921 28.136827c-0.047072-0.008186 0.046049 26.931373 0.00921 26.922163C716.969766 188.987514 647.044184 190.543963 609.051895 225.686345zM747.683279 115.559155c-30.714536-36.725436-100.640118-35.157731-138.632407 0-56.675814-33.317827-86.949304-40.143279-166.368098 0-52.977585-32.753985-110.544699-41.917692-166.377308 0l0.010233-53.953819c0 0 92.459808-37.682227 166.367075 12.637832 73.194022-49.616024 155.110707-18.169825 166.368098 0 24.629957-26.555819 95.795786-36.019355 138.632407-13.766538l0 28.151154C747.636207 88.609363 747.721141 115.559155 747.683279 115.559155zM442.683796 294.531316c73.194022-49.618071 155.110707-18.167778 166.368098 0 24.629957-26.549679 95.795786-36.027541 138.632407-13.770632l0 28.151154c-0.047072-0.01228 0.037862 26.935466 0 26.916023-30.714536-36.69883-100.640118-35.136242-138.632407 0-56.675814-33.295314-86.949304-40.122813-166.368098 0-52.977585-32.737612-110.544699-41.905412-166.377308 0l0.010233-53.937446C276.315698 281.890414 368.77653 244.211257 442.683796 294.531316zM421.238368 452.50728c26.883277 0 48.675606 21.797445 48.675606 48.675606 0 26.883277-48.675606 81.128739-48.675606 81.128739s-48.677653-54.245462-48.677653-81.128739C372.559693 474.303702 394.355091 452.50728 421.238368 452.50728zM388.786259 501.182886l16.225543 0 0-16.225543-16.225543 0L388.786259 501.182886zM518.58958 355.151975c26.876114 0 48.678676 21.793352 48.678676 48.676629s-48.678676 81.127715-48.678676 81.127715-48.675606-54.245462-48.675606-81.127715S491.707326 355.151975 518.58958 355.151975zM486.139517 403.828604l16.225543 0 0-16.225543-16.225543 0L486.139517 403.828604zM583.493799 484.957343c26.883277 0 48.676629 21.799492 48.676629 48.676629 0 26.883277-48.676629 81.127715-48.676629 81.127715s-48.676629-54.245462-48.676629-81.127715C534.81717 506.755812 556.612569 484.957343 583.493799 484.957343zM551.04169 533.632949l16.226566 0 0-16.22452-16.226566 0L551.04169 533.632949z"  horiz-adv-x="1024" />

    
    <glyph glyph-name="xiangmugailan-yongshuiliang" unicode="&#59728;" d="M535.000615 886.980923a34.067692 34.067692 0 0 1-46.158769 0C472.142769 871.227077 79.36 498.609231 79.36 280.024615 79.36 55.020308 273.408-128 511.921231-128c238.513231 0 432.561231 183.020308 432.561231 408.024615C944.443077 498.609231 551.739077 871.227077 535.000615 886.941538z m-23.079384-953.344c-202.476308 0-367.222154 155.372308-367.222154 346.348308 0 149.976615 246.547692 422.793846 367.222154 541.184 120.713846-118.390154 367.222154-391.207385 367.222154-541.144616 0-191.015385-164.745846-346.387692-367.222154-346.387692z m250.564923 362.417231c-17.92 2.048-34.067692-10.24-36.115692-27.136-11.697231-97.240615-83.534769-177.979077-183.059693-205.666462-17.289846-4.804923-27.175385-21.976615-22.055384-38.281846 4.214154-13.390769 17.211077-22.094769 31.310769-22.094769 3.072 0 6.183385 0.393846 9.255384 1.260308 124.731077 34.737231 214.803692 135.955692 229.45477 257.851077 2.048 16.935385-10.830769 32.137846-28.75077 34.067692z"  horiz-adv-x="1024" />

    
    <glyph glyph-name="yuzhi" unicode="&#59451;" d="M603.672 291.494c49.985 49.985 49.985 131.027 0 181.012-49.985 49.985-417.904 236.898-417.904 236.898s186.907-367.925 236.892-417.91 131.027-49.985 181.012 0zM512 849.454h-46.545v-209.469c0-12.845 10.413-23.259 23.259-23.259h0.028c12.845 0 23.259 10.413 23.259 23.259V802.909c56.573 0 111.429-11.07 163.044-32.901 49.878-21.097 94.682-51.308 133.169-89.795 38.487-38.487 68.698-83.292 89.795-133.169 21.831-51.615 32.9-106.471 32.9-163.044 0-56.573-11.07-111.429-32.901-163.044-21.097-49.878-51.308-94.682-89.795-133.169-38.487-38.487-83.292-68.698-133.169-89.795C623.429-23.84 568.573-34.909 512-34.909s-111.429 11.07-163.044 32.901c-49.878 21.097-94.682 51.308-133.169 89.795-38.487 38.487-68.698 83.292-89.795 133.169C104.16 272.571 93.091 327.427 93.091 384c0 32.907 3.748 65.232 11.179 96.677 2.842 12.026-4.227 24.171-16.085 27.65-12.793 3.753-26.126-3.991-29.19-16.966-8.139-34.465-12.45-70.409-12.45-107.36 0-257.063 208.391-465.454 465.453-465.454 257.059-0.001 465.456 208.397 465.456 465.456 0 257.061-208.391 465.451-465.454 465.451z"  horiz-adv-x="1024" />

    
    <glyph glyph-name="tubiao" unicode="&#58965;" d="M64 0V768H0v-832h1024v64zM192 576h128v-512H192zM512 704h128v-640H512zM832 512h128v-448h-128z"  horiz-adv-x="1024" />

    
    <glyph glyph-name="biaoge" unicode="&#58989;" d="M896 768h-768c-35.2 0-64-28.8-64-64v-640c0-35.2 28.8-64 64-64h768c35.2 0 64 28.8 64 64v640c0 35.2-28.8 64-64 64zM352 64h-224v160h224v-160zM352 288h-224v160h224v-160zM352 512h-224v160h224v-160zM608 64h-192v160h192v-160zM608 288h-192v160h192v-160zM608 512h-192v160h192v-160zM896 64h-224v160h224v-160zM896 288h-224v160h224v-160zM896 512h-224v160h224v-160z"  horiz-adv-x="1024" />

    
    <glyph glyph-name="jian" unicode="&#58884;" d="M192 448h640c35.328 0 64-28.672 64-64s-28.672-64-64-64h-640c-35.392 0-64 28.672-64 64s28.608 64 64 64z"  horiz-adv-x="1024" />

    
    <glyph glyph-name="jia" unicode="&#58959;" d="M567-8.804V775.464c0 30.987-25.093 56.081-56.024 56.081-30.93 0-56.023-25.094-56.023-56.081v-784.268c0-30.93 25.094-56.023 56.023-56.023 30.93 0 56.023 25.153 56.023 56.023zM903.139 439.382H118.842c-30.988 0-56.052-25.093-56.052-56.023 0-30.93 25.064-56.023 56.052-56.023H903.14c30.93 0 56.023 25.093 56.023 56.023 0 30.93-25.152 56.023-56.023 56.023z"  horiz-adv-x="1024" />

    
    <glyph glyph-name="benyueshuiliang" unicode="&#59200;" d="M339.32128906250006 302.58040364583337C329.1171875 215.56868489583337 295.26171875 136.94173177083314 237.517578125 66.62044270833337c-14.396484375000004 14.000976562500002-29.9794921875 27.52734375-46.669921875 40.5791015625 43.74316406250001 47.302734375 73.0107421875 103.623046875 87.88183593750001 168.96093750000003 10.362304687500002 48.25195312500001 15.5830078125 114.93457031250001 15.5830078125 200.126953125V710.1907552083334h451.5908203125v-527.2910156249999c0-66.68261718750001-31.798828125000004-100.0634765625-95.31738281249999-100.0634765625-26.578125 0-60.82910156249999 0.474609375-102.75292968749999 1.3447265624999998-2.2939453125 16.2158203125-5.616210937500001 35.12109375-10.124999999999998 56.79492187500001 41.44921875000001-2.6894531249999996 74.1181640625-4.034179687500001 98.0068359375-4.034179687500001 36.4658203125 0 54.73828125 17.797851562499996 54.73828125 53.393554687500014V302.58040364583337H339.32128906250006z m5.378906249999999 49.359375h345.75292968749994V481.7454427083333H349.7626953125c0-45.087890625-1.6611328125-88.3564453125-5.062499999999999-129.8056640625z m5.062499999999999 307.546875v-128.4609375h340.69042968750006V659.4866536458334H349.7626953125z"  horiz-adv-x="1024" />

    
    <glyph glyph-name="jinrishuiliang" unicode="&#59201;" d="M556.61328125 716.54296875L544.431640625 698.982421875c72.53613281250001-113.51074218749997 175.5263671875-195.53906250000003 308.970703125-246.005859375-14.396484375000004-21.19921875-26.8154296875-40.81640624999999-37.177734375-58.77246093750001-137.00390625 67.1572265625-238.17480468750003 153.93164062500003-303.5126953125 260.244140625-65.81249999999999-99.193359375-169.27734375-189.369140625-310.3154296875-270.4482421875-9.492187499999998 15.741210937499998-20.487304687500004 33.14355468749999-33.14355468749999 52.048828125C318.9130859375 512.619140625 424.98828125 606.1962890625001 487.63671875000006 716.54296875h68.9765625zM252.388671875 290.02734375v54.10546875000001H744.55859375v-54.10546875000001c-72.14062500000001-92.865234375-135.42187500000003-174.89355468750003-189.9228515625-246.08496093750003L505.9091796875 81.83203125c54.50097656250001 64.86328125 109.08105468749999 134.314453125 163.58203125 208.1953125H252.388671875z m191.9794921875 201.47167968749997l45.3251953125 28.397460937500004c28.8720703125-37.88964843749999 54.73828125-73.64355468750001 77.7568359375-107.4990234375L518.7236328125 379.25390625c-20.724609375000004 35.59570312499999-45.4833984375 73.0107421875-74.35546875 112.24511718749999z"  horiz-adv-x="1024" />

    
    <glyph glyph-name="shipinchakan" unicode="&#58656;" d="M898.844444 501.57037c0 217.694815-176.734815 394.42963-394.429629 394.42963S109.985185 719.265185 109.985185 501.57037c0-178.251852 118.328889-328.817778 280.651852-377.742222l-83.816296-179.389629c-4.93037-18.583704 2.654815-34.891852 17.066666-34.891852h361.054815c14.411852 0 21.997037 16.308148 17.066667 34.891852L618.192593 123.828148c162.322963 48.924444 280.651852 199.49037 280.651851 377.742222z m-394.429629-246.518518c-136.154074 0-246.518519 110.364444-246.518519 246.518518s110.364444 246.518519 246.518519 246.518519 246.518519-110.364444 246.518518-246.518519-110.364444-246.518519-246.518518-246.518518zM504.414815 501.57037m-147.911111 0a147.911111 147.911111 0 1 1 295.822222 0 147.911111 147.911111 0 1 1-295.822222 0Z"  horiz-adv-x="1024" />

    
    <glyph glyph-name="shang" unicode="&#58636;" d="M104.928 45.730999999999995h821.243c45.467 0 82.191 35.892 82.191 80.688 0 20.786-8.127 39.625-21.134 53.893l-406.118 533.814c-27.178 35.363-78.468 42.801-114.638 15.957-6.334-4.581-11.867-9.956-16.209-15.957l-410.757-539.453c-26.902-35.363-19.655-86.091 16.48-112.607 14.836-11.171 31.857-16.279 48.953-16.279v0 0 0zM104.928 45.730999999999995z"  horiz-adv-x="1024" />

    
    <glyph glyph-name="iconfont64" unicode="&#58635;" d="M904.3805065127756-18.577499430107082c3.552713678800501e-14-92.25629524049475-63.540148660051855-126.9796529452463-141.18728386263376-77.17746145324682l-606.6842916411716 389.19179757405584c-77.64713520258192 49.81896555447574-77.64713520258195 131.3241351265961-7.105427357601002e-14 181.14310068107187l606.6842916411714 389.17502351157987c77.64713520258188 49.80219149199951 141.18728386263376 15.080930545057562 141.1872838626338-77.17746145324674l2.8421709430404007e-13-805.1549988602142z"  horiz-adv-x="1024" />

    
    <glyph glyph-name="new_shuibiao" unicode="&#59008;" d="M512 896C229.23 896 0 666.77 0 384s229.23-512 512-512 512.001 229.23 512.001 512S794.771 896 512 896z m347.568-859.566c-45.148-45.148-97.717-80.594-156.246-105.348-60.585-25.626-124.954-38.619-191.321-38.619-66.365 0-130.736 12.993-191.32 38.619-58.53 24.754-111.098 60.2-156.247 105.348-45.148 45.148-80.592 97.717-105.348 156.246C33.46 253.264 20.467 317.63300000000004 20.467 384S33.46 514.736 59.086 575.321c24.756 58.53 60.2 111.098 105.348 156.246S262.151 812.16 320.681 836.915C381.264 862.5409999999999 445.634 875.534 512 875.534c66.365 0 130.736-12.993 191.321-38.619 58.53-24.756 111.098-60.2 156.246-105.348 45.148-45.148 80.592-97.718 105.348-156.246 25.626-60.585 38.619-124.954 38.619-191.321s-12.993-130.736-38.619-191.32c-24.754-58.53-60.199-111.098-105.347-156.246zM357.144 459.576c22.093 0 30.758 18.629 30.758 38.772 0 20.144-8.665 38.664-30.758 38.664-21.443 0-29.566-18.52-29.566-38.664 0-20.143 8.123-38.772 29.566-38.772z m0.541 62.49c12.13 0 12.455-13.862 12.455-23.718 0-9.855-0.325-23.826-12.455-23.826-11.696 0-12.346 13.97-12.346 23.826s0.65 23.719 12.346 23.719zM459.488 459.576c22.094 0 30.759 18.629 30.759 38.772 0 20.144-8.665 38.664-30.759 38.664-21.443 0-29.565-18.52-29.565-38.664 0-20.143 8.122-38.772 29.565-38.772z m0.541 62.49c12.13 0 12.455-13.862 12.455-23.718 0-9.855-0.324-23.826-12.455-23.826-11.696 0-12.346 13.97-12.346 23.826 0.001 9.856 0.65 23.719 12.346 23.719zM561.832 459.576c22.094 0 30.758 18.629 30.758 38.772 0 20.144-8.664 38.664-30.758 38.664-21.443 0-29.565-18.52-29.565-38.664 0-20.143 8.122-38.772 29.565-38.772z m0.542 62.49c12.13 0 12.455-13.862 12.455-23.718 0-9.855-0.324-23.826-12.455-23.826-11.696 0-12.346 13.97-12.346 23.826s0.649 23.719 12.346 23.719zM664.177 459.576c22.094 0 30.758 18.629 30.758 38.772 0 20.144-8.664 38.664-30.758 38.664-21.443 0-29.565-18.52-29.565-38.664-0.002-20.143 8.122-38.772 29.565-38.772z m0.541 62.49c12.13 0 12.455-13.862 12.455-23.718 0-9.855-0.325-23.826-12.455-23.826-11.696 0-12.346 13.97-12.346 23.826s0.65 23.719 12.346 23.719zM511.202 765.693c-211.368 0-382.716-171.347-382.716-382.716S299.834 0.2599999999999909 511.202 0.2599999999999909c211.369 0 382.716 171.348 382.716 382.717S722.571 765.693 511.202 765.693zM291.817 532.938c0 21.35 17.307 38.659 38.659 38.659H691.93c21.351 0 38.658-17.309 38.658-38.659v-63.786c0-21.35-17.307-38.658-38.658-38.658H330.475c-21.352 0-38.659 17.308-38.659 38.658v63.786z m42.047-364.145c-53.051 0-96.059 43.007-96.059 96.058 0 53.052 43.007 96.06 96.059 96.06s96.059-43.008 96.059-96.06-43.008-96.058-96.06-96.058zM532.267 45.97000000000003c-53.053 0-96.06 43.008-96.06 96.059 0 53.051 43.007 96.059 96.06 96.059 53.05 0 96.058-43.008 96.058-96.059 0-53.051-43.007-96.059-96.058-96.059z m189.809 122.822c-53.053 0-96.06 43.007-96.06 96.058 0 53.052 43.007 96.06 96.06 96.06 53.052 0 96.058-43.008 96.058-96.06s-43.006-96.058-96.058-96.058zM343.356 267.66999999999996l-11.912 53.29-11.913-53.288c-11.71-4.72-19.979-16.183-19.979-29.583 0-17.613 14.279-31.893 31.892-31.893s31.891 14.28 31.891 31.893c0 13.399-8.268 24.862-19.979 29.582zM738.74 267.66999999999996l-11.913 53.29-11.913-53.29c-11.71-4.719-19.979-16.182-19.979-29.582 0-17.613 14.279-31.893 31.892-31.893s31.891 14.28 31.891 31.893c0 13.4-8.268 24.863-19.979 29.583zM544.179 141.55399999999997l-11.912 53.289-11.913-53.289c-11.71-4.72-19.978-16.182-19.978-29.583 0-17.613 14.278-31.892 31.892-31.892s31.89 14.28 31.89 31.892c0 13.4-8.27 24.863-19.98 29.583z"  horiz-adv-x="1025" />

    
    <glyph glyph-name="chushuiliang" unicode="&#58902;" d="M391.2 572.2v-156c86.9-9.6 84.7-11 84.7-51 0-47.5-19.5-53.8-67.4-53.8H147.7c-48 0-84.8 6.3-84.8 53.8 0 40.1-19.5 41.5 67.5 51V699.8c0 83.9 85.1 133.2 169.4 133.2h612.9v-260.8H391.2z m0 0M268 235.4c0.3 46.8-35 65.9-60.4 65.9-20.7 0-62.8-16.7-61.8-63.2 1.1-46.5 61.8-102.6 61.8-102.6s60.2 53.1 60.4 99.9z m-14.8-3.9c0.3-1.4 0.2-3-0.3-4.6-1.3-3.9-4.7-6.1-7.6-4.9-1.9 0.8-3.1 2.8-3.4 5.1-2.6 18.6-12.3 34.1-27 40.2h-0.1c-2.9 1.2-4.2 5.3-3 9.3 1.3 3.9 4.7 6.1 7.6 4.9 18.4-7.6 30.5-26.9 33.8-50z m0 0M444.8 235.4c0.3 46.8-35 65.9-60.4 65.9-20.7 0-62.8-16.7-61.8-63.2 1.1-46.5 61.8-102.6 61.8-102.6s60.1 53.1 60.4 99.9z m-14.9-3.9c0.3-1.4 0.2-3-0.3-4.6-1.3-3.9-4.7-6.1-7.6-4.9-1.9 0.8-3.1 2.8-3.4 5.1-2.6 18.6-12.3 34.1-27 40.2h-0.1c-2.9 1.2-4.2 5.3-3 9.3 1.3 3.9 4.7 6.1 7.6 4.9 18.5-7.6 30.6-26.9 33.8-50z m0 0M268 39.8c0.3 46.8-35 65.9-60.4 65.9-20.7 0-62.8-16.7-61.8-63.2 1.1-46.5 61.8-102.6 61.8-102.6s60.2 53.1 60.4 99.9z m-14.8-3.9c0.3-1.4 0.2-3-0.3-4.6-1.3-3.9-4.7-6.1-7.6-4.9-1.9 0.8-3.1 2.8-3.4 5.1-2.6 18.6-12.3 34.1-27 40.2h-0.1c-2.9 1.2-4.2 5.3-3 9.3 1.3 3.9 4.7 6.1 7.6 4.9 18.4-7.5 30.5-26.8 33.8-50z m0 0M444.8 39.8c0.3 46.8-35 65.9-60.4 65.9-20.7 0-62.8-16.7-61.8-63.2 1.1-46.5 61.8-102.6 61.8-102.6s60.1 53.1 60.4 99.9z m-14.9-3.9c0.3-1.4 0.2-3-0.3-4.6-1.3-3.9-4.7-6.1-7.6-4.9-1.9 0.8-3.1 2.8-3.4 5.1-2.6 18.6-12.3 34.1-27 40.2h-0.1c-2.9 1.2-4.2 5.3-3 9.3 1.3 3.9 4.7 6.1 7.6 4.9 18.5-7.5 30.6-26.8 33.8-50z m0 0"  horiz-adv-x="1024" />

    
    <glyph glyph-name="jinshuiliang" unicode="&#58904;" d="M938.5 196.9v-260.8H325.6c-84.3 0-169.4 49.3-169.4 133.2V352.9c-86.9 9.6-67.5 11-67.5 51 0 47.5 36.8 53.8 84.8 53.8h260.8c47.9 0 67.4-6.3 67.4-53.8 0-40 2.3-41.5-84.7-51v-156h521.5z m-521.6 0M268 755.9c0.3 46.8-35 65.9-60.4 65.9-20.7 0-62.8-16.7-61.8-63.2C146.9 712 207.6 656 207.6 656s60.2 53.1 60.4 99.9z m-14.8-3.9c0.3-1.4 0.2-3-0.3-4.6-1.3-3.9-4.7-6.1-7.6-4.9-1.9 0.8-3.1 2.8-3.4 5.1-2.6 18.6-12.3 34.1-27 40.2h-0.1c-2.9 1.2-4.2 5.3-3 9.3 1.3 3.9 4.7 6.1 7.6 4.9 18.4-7.6 30.5-26.9 33.8-50z m0 0M444.8 755.9c0.3 46.8-35 65.9-60.4 65.9-20.7 0-62.8-16.7-61.8-63.2C323.7 712 384.4 656 384.4 656s60.1 53.1 60.4 99.9z m-14.9-3.9c0.3-1.4 0.2-3-0.3-4.6-1.3-3.9-4.7-6.1-7.6-4.9-1.9 0.8-3.1 2.8-3.4 5.1-2.6 18.6-12.3 34.1-27 40.2h-0.1c-2.9 1.2-4.2 5.3-3 9.3 1.3 3.9 4.7 6.1 7.6 4.9 18.5-7.6 30.6-26.9 33.8-50z m0 0M268 560.3c0.3 46.8-35 65.9-60.4 65.9-20.7 0-62.8-16.7-61.8-63.2 1.1-46.5 61.8-102.6 61.8-102.6s60.2 53.1 60.4 99.9z m-14.8-3.9c0.3-1.4 0.2-3-0.3-4.6-1.3-3.9-4.7-6.1-7.6-4.9-1.9 0.8-3.1 2.8-3.4 5.1-2.6 18.6-12.3 34.1-27 40.2h-0.1c-2.9 1.2-4.2 5.3-3 9.3 1.3 3.9 4.7 6.1 7.6 4.9 18.4-7.5 30.5-26.9 33.8-50z m0 0M444.8 560.3c0.3 46.8-35 65.9-60.4 65.9-20.7 0-62.8-16.7-61.8-63.2 1.1-46.5 61.8-102.6 61.8-102.6s60.1 53.1 60.4 99.9z m-14.9-3.9c0.3-1.4 0.2-3-0.3-4.6-1.3-3.9-4.7-6.1-7.6-4.9-1.9 0.8-3.1 2.8-3.4 5.1-2.6 18.6-12.3 34.1-27 40.2h-0.1c-2.9 1.2-4.2 5.3-3 9.3 1.3 3.9 4.7 6.1 7.6 4.9 18.5-7.5 30.6-26.9 33.8-50z m0 0"  horiz-adv-x="1024" />

    
    <glyph glyph-name="zhuchangtianchong" unicode="&#58931;" d="M96.760951 512.801001c15.379224 50.623279 38.44806 96.12015 69.206508 137.772216 31.399249 42.292866 69.206508 77.536921 113.421778 105.091364 8.330413 5.126408 10.893617 10.893617 10.252816 19.864831l-3.844806 99.964956V896c18.583229-3.844806 35.884856-5.767209 52.545682-10.893617 35.244055-10.893617 63.439299-31.399249 85.226533-61.516896 2.563204-3.204005 8.330413-5.126408 12.81602-5.126408 22.428035 1.922403 44.85607 6.40801 66.643304 6.40801 108.295369 0.640801 215.949937 2.563204 324.245307-1.281602 113.421777-3.844806 208.901126-50.623279 288.36045-131.364205 7.689612-7.689612 14.097622-9.612015 23.068836-4.485607 31.399249 17.942428 62.157697 35.884856 94.197747 53.827284 5.126408-16.660826 5.126408-36.525657 3.204005-55.749687-2.563204-37.166458-14.738423-70.48811-36.525657-100.605758-2.563204-3.204005-3.204005-10.252816-1.281602-14.097622 66.643304-158.918648 50.623279-308.225282-51.26408-447.9199-10.893617-15.379224-25.63204-28.195244-37.166458-43.574468-3.204005-3.844806-5.767209-10.252816-4.485607-14.738423 3.844806-27.554443 9.612015-55.108886 13.456821-82.022528 6.40801-42.292866-19.864831-81.381727-60.876095-91.634543-29.476846-7.048811-59.594493-12.175219-89.071339-17.942428-19.22403-3.844806-35.884856 3.204005-50.623279 16.020025-3.204005 2.563204-8.971214 4.485607-13.456821 4.485607-21.787234-1.281602-42.933667-3.844806-64.720901-5.126408-38.44806-1.922403-73.051314 19.864831-87.789738 55.749687-3.204005 7.689612-7.048811 9.612015-14.738423 9.612015-24.350438-0.640801-48.700876-0.640801-73.692115 0-7.048811 0-10.893617-1.922403-14.097622-8.971214-16.660826-35.884856-45.496871-55.108886-85.226533-56.390488-10.893617-0.640801-22.428035-0.640801-33.321652-1.922403-30.758448-2.563204-59.594493 1.281602-83.30413 21.787234-10.252816-7.048811-19.22403-14.097622-28.836045-18.583229-19.864831-10.252816-41.011264-11.534418-62.798498-5.767209-23.068836 6.40801-45.496871 12.175219-68.565707 19.22403-44.85607 13.456821-70.48811 56.390488-61.516897 102.52816 1.922403 10.893617 3.204005 22.428035 6.40801 32.680851 3.844806 11.534418 0 18.583229-8.971214 26.913642-39.729662 34.603254-71.128911 76.255319-95.479349 123.674594-3.844806 7.689612-8.330413 12.175219-17.942428 11.534418-9.612015-0.640801-19.864831 0-30.117647 0-44.85607-0.640801-80.100125 33.962453-80.100125 79.459324V429.496871c0 48.060075 34.603254 82.663329 82.022528 82.663329 4.485607 0.640801 9.612015 0.640801 14.738423 0.640801z m1093.847309 153.15144c-23.709637-10.252816-45.496871-19.22403-67.284105-28.836046-7.048811-3.204005-12.175219-2.563204-17.301627 3.844807-7.048811 8.971214-14.738423 16.660826-23.068836 24.991239-73.051314 73.051314-160.841051 114.062578-264.010012 117.907384-83.944931 2.563204-168.530663 0.640801-253.116396 1.281602-50.623279 0.640801-101.246558 0-151.229036-12.175219-3.844806-0.640801-10.252816 1.922403-12.81602 5.767209-7.048811 8.971214-11.534418 19.22403-18.583229 28.195244-13.456821 18.583229-32.04005 30.758448-51.904881 37.807259 0-30.117647-0.640801-59.594493 0.640801-89.071339 0.640801-10.252816-2.563204-16.020025-11.534418-21.787234-93.556946-55.108886-155.714643-134.56821-186.473092-239.659575-7.689612-25.63204-0.640801-20.505632-28.836045-21.146433h-19.864831c-28.836045-0.640801-44.85607-16.020025-44.85607-44.85607v-140.97622c0-28.836045 16.020025-44.215269 45.496871-44.85607 17.301627 0 34.603254-0.640801 52.545682 0 7.689612 0 11.534418-1.922403 14.738423-9.612015 27.554443-61.516896 67.924906-112.780976 119.829788-155.073843 3.204005-2.563204 5.767209-9.612015 5.126408-14.738423-3.204005-21.146433-7.689612-42.292866-12.175219-63.439299-5.126408-26.272841 8.971214-49.341677 34.603254-56.390488 20.505632-5.767209 41.011264-10.893617 60.876095-17.301627 21.787234-6.40801 39.729662-1.281602 55.108886 15.379224 8.330413 8.971214 16.020025 17.301627 24.991239 26.913642 10.252816-8.330413 19.22403-16.020025 28.195244-23.709637 12.175219-10.252816 25.63204-16.660826 42.292866-16.020025 17.301627 0.640801 33.962453 0.640801 51.26408 1.922403 23.709637 1.281602 40.370463 13.456821 49.341677 35.884856 1.922403 5.126408 3.844806 10.252816 5.126408 15.379224 1.922403 10.252816 7.048811 14.097622 18.583229 14.097622 38.44806-0.640801 77.536921-0.640801 115.984981-0.640801 26.913642 0 26.913642 0 33.962454-24.991239 6.40801-21.787234 20.505632-37.807259 42.292866-38.44806 25.63204-0.640801 51.26408 2.563204 76.255319 7.689612 23.068836 5.126408 22.428035 7.689612 35.884856-11.534418 7.048811-10.252816 15.379224-14.097622 27.554443-10.893617 23.068836 5.126408 46.137672 8.971214 69.847309 14.097622 28.836045 5.767209 42.292866 24.991239 37.807259 53.827284-5.126408 30.117647-9.612015 59.594493-15.379224 89.71214-2.563204 11.534418 0 19.22403 8.971214 26.913642 51.904881 48.060075 89.071339 106.372966 108.93617 173.657072 30.758448 101.887359 21.146433 201.211514-26.913642 296.050062-5.126408 10.893617-5.767209 17.942428 2.563204 27.554443 18.583229 17.942428 31.399249 39.729662 36.525657 67.284106zM1204.065081 672.360451c-5.126408-27.554443-18.583229-50.623279-36.525657-69.84731-8.971214-9.612015-8.330413-17.301627-3.204005-28.195244 48.700876-97.401752 58.953692-198.64831 27.554443-303.098873-20.505632-69.206508-58.312891-128.801001-111.499374-178.142679-8.971214-8.330413-11.534418-16.020025-8.971214-27.554443 6.40801-30.117647 10.893617-60.876095 16.020025-91.634543 5.126408-30.117647-8.971214-49.341677-38.44806-55.108886-23.709637-4.485607-47.419274-8.971214-71.128911-14.097622-12.81602-3.204005-21.146433 0.640801-28.195244 11.534418-13.456821 19.864831-13.456821 17.301627-36.525657 12.175219-25.63204-5.767209-51.904881-8.971214-78.177722-8.330413-22.428035 0.640801-42.933667 17.301627-49.982478 39.088861-7.689612 25.63204-1.281602 25.63204-28.836046 25.63204-39.729662 0-78.818523-0.640801-118.548185 0.640801-11.534418 0-17.301627-3.844806-19.22403-14.738423-1.281602-5.126408-3.204005-10.893617-5.126408-15.379224-8.971214-23.068836-26.272841-35.244055-50.623279-36.525657-17.301627-1.281602-34.603254-1.281602-52.545682-1.922403-16.660826-0.640801-30.758448 5.767209-42.933667 16.020025-9.612015 7.689612-18.583229 16.020025-28.836045 24.350438-8.971214-9.612015-17.301627-18.583229-25.63204-27.554443-15.379224-16.660826-33.962453-22.428035-56.390488-16.020025-20.505632 6.40801-41.652065 11.534418-62.798498 17.301627-26.272841 7.689612-40.370463 30.758448-35.884856 57.67209 3.844806 21.787234 8.971214 43.574468 12.175219 65.361702 0.640801 4.485607-1.922403 12.175219-5.126408 14.738423-53.186483 43.574468-94.838548 96.12015-123.033793 158.918649-3.204005 7.689612-7.689612 9.612015-15.379224 9.612015-17.942428-0.640801-35.884856-0.640801-53.827284 0-29.476846 0.640801-46.137672 16.660826-46.137672 45.496871V426.933667c0 29.476846 16.660826 45.496871 46.137672 46.137672h20.505632c28.836045 0.640801 21.787234-4.485607 29.476846 21.787234 32.04005 107.654568 96.12015 189.036295 191.5995 245.426784 9.612015 5.767209 12.175219 11.534418 12.175219 21.787234-1.281602 30.117647-0.640801 60.235294-0.640801 90.993742 20.505632-7.048811 39.088861-19.864831 53.186483-38.44806 7.048811-8.971214 11.534418-19.864831 18.583229-28.836045 2.563204-3.204005 8.971214-6.40801 12.81602-5.767209 51.26408 12.175219 102.52816 12.81602 154.433041 12.81602 86.508135-0.640801 173.01627 1.281602 258.883605-1.281602 105.732165-3.204005 195.444305-45.496871 270.418022-120.470588 8.330413-8.330413 16.020025-16.020025 23.068836-24.991239 5.126408-7.048811 10.252816-7.048811 17.301627-3.844806 23.709637 10.252816 46.137672 19.864831 69.847309 30.117647zM333.857322 640.961202c-46.137672 0-83.30413-35.244055-83.304131-81.381728 0-46.137672 35.244055-83.30413 81.381728-83.30413 46.137672 0 83.30413 35.244055 83.30413 81.381727 0.640801 46.137672-35.244055 82.663329-81.381727 83.304131zM333.216521 658.90363c-55.749687 0-100.605757-44.85607-100.605758-100.605758s44.85607-100.605757 100.605758-100.605757 100.605757 44.85607 100.605757 100.605757S388.325407 658.90363 333.216521 658.90363z m0-142.898624a42.933667 42.933667 0 1 0 42.933667 42.933667c-0.640801-23.709637-19.22403-42.933667-42.933667-42.933667z"  horiz-adv-x="1238" />

    


  </font>
</defs>
</svg>
